<svg width="48" height="49" viewBox="0 0 48 49" fill="none" xmlns="http://www.w3.org/2000/svg">
<g clip-path="url(#clip0_1003_23)">
<path d="M24 48.7642C37.2548 48.7642 48 38.0087 48 24.7412C48 11.4737 37.2548 0.718201 24 0.718201C10.7452 0.718201 0 11.4737 0 24.7412C0 38.0087 10.7452 48.7642 24 48.7642Z" fill="#4D76A1"/>
<path fill-rule="evenodd" clip-rule="evenodd" d="M23.0934 35.2774H24.9771C24.9771 35.2774 25.5461 35.2149 25.8366 34.9014C26.104 34.6137 26.0955 34.0732 26.0955 34.0732C26.0955 34.0732 26.0587 31.5432 27.2318 31.1707C28.3882 30.8037 29.8731 33.6159 31.4471 34.6972C32.6373 35.5155 33.5417 35.3361 33.5417 35.3361L37.7502 35.2774C37.7502 35.2774 39.9518 35.1417 38.9079 33.409C38.8223 33.2673 38.3 32.1273 35.7788 29.7849C33.14 27.3333 33.4934 27.7298 36.6721 23.489C38.608 20.9064 39.3819 19.3296 39.1402 18.6543C38.9096 18.0111 37.4858 18.1811 37.4858 18.1811L32.7472 18.2106C32.7472 18.2106 32.396 18.1627 32.1355 18.3185C31.8809 18.4714 31.7171 18.8277 31.7171 18.8277C31.7171 18.8277 30.9671 20.8263 29.9668 22.5259C27.8568 26.1124 27.0131 26.3017 26.6683 26.079C25.8661 25.56 26.0664 23.9939 26.0664 22.8814C26.0664 19.4058 26.593 17.9567 25.0409 17.5816C24.5258 17.4569 24.1467 17.3747 22.8295 17.3615C21.1387 17.3439 19.7076 17.3666 18.8973 17.764C18.3583 18.0282 17.9424 18.617 18.1957 18.6509C18.5089 18.6928 19.2182 18.8423 19.5943 19.3549C20.0798 20.0161 20.0627 21.5012 20.0627 21.5012C20.0627 21.5012 20.3417 25.5925 19.4112 26.1008C18.7724 26.4494 17.8962 25.7377 16.0151 22.484C15.0512 20.8173 14.3235 18.975 14.3235 18.975C14.3235 18.975 14.1832 18.6307 13.9329 18.4466C13.6291 18.2235 13.2047 18.1524 13.2047 18.1524L8.7019 18.1819C8.7019 18.1819 8.02594 18.2008 7.7778 18.495C7.55705 18.7566 7.76026 19.2979 7.76026 19.2979C7.76026 19.2979 11.2855 27.5534 15.2771 31.7137C18.9371 35.5279 23.0934 35.2774 23.0934 35.2774Z" fill="white"/>
</g>
<defs>
<clipPath id="clip0_1003_23">
<rect width="48" height="48.046" fill="white" transform="translate(0 0.718201)"/>
</clipPath>
</defs>
</svg>
