<svg width="48" height="49" viewBox="0 0 48 49" fill="none" xmlns="http://www.w3.org/2000/svg">
<g clip-path="url(#clip0_1003_17)">
<path d="M23.987 0.730847C10.74 0.73366 0.00339595 11.4851 0.00620679 24.7448C0.00714373 29.3362 1.32346 33.831 3.79887 37.6964L0.0671082 47.388C-0.131618 47.9034 0.12473 48.4826 0.639676 48.6815C0.754826 48.7259 0.877098 48.7487 1.00049 48.7485C1.11499 48.7491 1.22864 48.7295 1.33629 48.6905L11.3304 45.1192C22.5749 52.1291 37.3676 48.6875 44.3707 37.4321C51.3738 26.1768 47.9356 11.37 36.691 4.36021C32.8793 1.9839 28.4776 0.726439 23.987 0.730847Z" fill="#55CD6C"/>
<path d="M35.4222 28.8431C35.4222 28.8431 32.9737 27.6426 31.4406 26.8424C29.7056 25.948 27.6668 27.6227 26.7074 28.575C25.2142 28.0009 23.8504 27.1343 22.6958 26.0261C21.5884 24.8705 20.7226 23.5054 20.1492 22.0106C21.1007 21.0483 22.7697 19.0095 21.8802 17.2729C21.0907 15.7363 19.8815 13.2874 19.8815 13.2855C19.7118 12.9484 19.3671 12.7356 18.99 12.7352H16.9912C14.0803 13.2385 11.9638 15.7808 11.9942 18.7374C11.9942 21.8785 15.7499 27.9128 18.2825 30.4497C20.815 32.9866 26.8434 36.744 29.9835 36.744C32.9373 36.7744 35.4772 34.6558 35.98 31.7422V29.7415C35.9802 29.36 35.764 29.0116 35.4222 28.8431Z" fill="#FAFAFA"/>
</g>
<defs>
<clipPath id="clip0_1003_17">
<rect width="48" height="48.046" fill="white" transform="translate(0 0.718201)"/>
</clipPath>
</defs>
</svg>
